<mxfile host="app.diagrams.net" modified="2020-10-12T15:27:09.218Z" agent="5.0 (X11)" etag="XpLKFZUwMKw5MLbnjdP5" version="13.7.9" type="github">
  <diagram id="R1zSZCgFho4HzfD2BebC" name="Page-1">
    <mxGraphModel dx="1413" dy="798" grid="1" gridSize="10" guides="1" tooltips="1" connect="1" arrows="1" fold="1" page="1" pageScale="1" pageWidth="1654" pageHeight="2336" math="0" shadow="0">
      <root>
        <mxCell id="0" />
        <mxCell id="1" parent="0" />
        <mxCell id="WJDLdsBlLHQX-QpXwVI_-4" style="edgeStyle=orthogonalEdgeStyle;rounded=0;orthogonalLoop=1;jettySize=auto;html=1;entryX=0.5;entryY=0;entryDx=0;entryDy=0;" edge="1" parent="1" source="WJDLdsBlLHQX-QpXwVI_-2" target="WJDLdsBlLHQX-QpXwVI_-3">
          <mxGeometry relative="1" as="geometry" />
        </mxCell>
        <mxCell id="WJDLdsBlLHQX-QpXwVI_-14" style="edgeStyle=orthogonalEdgeStyle;rounded=0;orthogonalLoop=1;jettySize=auto;html=1;exitX=0.5;exitY=1;exitDx=0;exitDy=0;entryX=0.5;entryY=0;entryDx=0;entryDy=0;" edge="1" parent="1" source="WJDLdsBlLHQX-QpXwVI_-2" target="WJDLdsBlLHQX-QpXwVI_-13">
          <mxGeometry relative="1" as="geometry" />
        </mxCell>
        <mxCell id="WJDLdsBlLHQX-QpXwVI_-16" style="edgeStyle=orthogonalEdgeStyle;rounded=0;orthogonalLoop=1;jettySize=auto;html=1;entryX=0.5;entryY=0;entryDx=0;entryDy=0;" edge="1" parent="1" source="WJDLdsBlLHQX-QpXwVI_-2" target="WJDLdsBlLHQX-QpXwVI_-15">
          <mxGeometry relative="1" as="geometry" />
        </mxCell>
        <mxCell id="WJDLdsBlLHQX-QpXwVI_-2" value="&lt;font style=&quot;font-size: 38px&quot;&gt;Tela Inicial&lt;/font&gt;" style="rounded=0;whiteSpace=wrap;html=1;fillColor=#f5f5f5;strokeColor=#666666;fontColor=#333333;" vertex="1" parent="1">
          <mxGeometry x="610" y="240" width="250" height="80" as="geometry" />
        </mxCell>
        <mxCell id="WJDLdsBlLHQX-QpXwVI_-6" style="edgeStyle=orthogonalEdgeStyle;rounded=0;orthogonalLoop=1;jettySize=auto;html=1;exitX=0.5;exitY=1;exitDx=0;exitDy=0;entryX=0.5;entryY=0;entryDx=0;entryDy=0;" edge="1" parent="1" source="WJDLdsBlLHQX-QpXwVI_-3" target="WJDLdsBlLHQX-QpXwVI_-5">
          <mxGeometry relative="1" as="geometry" />
        </mxCell>
        <mxCell id="WJDLdsBlLHQX-QpXwVI_-3" value="Acessar Dados dos Produtos de Investimento" style="rounded=1;whiteSpace=wrap;html=1;fillColor=#fff2cc;strokeColor=#d6b656;" vertex="1" parent="1">
          <mxGeometry x="50" y="340" width="120" height="60" as="geometry" />
        </mxCell>
        <mxCell id="WJDLdsBlLHQX-QpXwVI_-12" style="edgeStyle=orthogonalEdgeStyle;rounded=0;orthogonalLoop=1;jettySize=auto;html=1;entryX=0.5;entryY=0;entryDx=0;entryDy=0;" edge="1" parent="1" source="WJDLdsBlLHQX-QpXwVI_-5" target="WJDLdsBlLHQX-QpXwVI_-10">
          <mxGeometry relative="1" as="geometry">
            <mxPoint x="110" y="550" as="targetPoint" />
          </mxGeometry>
        </mxCell>
        <mxCell id="WJDLdsBlLHQX-QpXwVI_-5" value="Informar Classe dos produtos de Investimento" style="rounded=1;whiteSpace=wrap;html=1;fillColor=#fff2cc;strokeColor=#d6b656;" vertex="1" parent="1">
          <mxGeometry x="50" y="450" width="120" height="60" as="geometry" />
        </mxCell>
        <mxCell id="WJDLdsBlLHQX-QpXwVI_-10" value="Apresenta os dados de cada produto de investimento dessa classe" style="rounded=1;whiteSpace=wrap;html=1;fillColor=#d5e8d4;strokeColor=#82b366;" vertex="1" parent="1">
          <mxGeometry x="50" y="555" width="120" height="60" as="geometry" />
        </mxCell>
        <mxCell id="WJDLdsBlLHQX-QpXwVI_-38" style="edgeStyle=orthogonalEdgeStyle;rounded=0;orthogonalLoop=1;jettySize=auto;html=1;exitX=0.5;exitY=1;exitDx=0;exitDy=0;entryX=0.5;entryY=0;entryDx=0;entryDy=0;" edge="1" parent="1" source="WJDLdsBlLHQX-QpXwVI_-13" target="WJDLdsBlLHQX-QpXwVI_-37">
          <mxGeometry relative="1" as="geometry" />
        </mxCell>
        <mxCell id="WJDLdsBlLHQX-QpXwVI_-13" value="Autenticar Usuário" style="rounded=1;whiteSpace=wrap;html=1;fillColor=#fff2cc;strokeColor=#d6b656;" vertex="1" parent="1">
          <mxGeometry x="675" y="380" width="120" height="60" as="geometry" />
        </mxCell>
        <mxCell id="WJDLdsBlLHQX-QpXwVI_-23" style="edgeStyle=orthogonalEdgeStyle;rounded=0;orthogonalLoop=1;jettySize=auto;html=1;exitX=0.5;exitY=1;exitDx=0;exitDy=0;entryX=0.5;entryY=0;entryDx=0;entryDy=0;" edge="1" parent="1" source="WJDLdsBlLHQX-QpXwVI_-15" target="WJDLdsBlLHQX-QpXwVI_-17">
          <mxGeometry relative="1" as="geometry" />
        </mxCell>
        <mxCell id="WJDLdsBlLHQX-QpXwVI_-15" value="Cadastrar Usuário" style="rounded=1;whiteSpace=wrap;html=1;fillColor=#fff2cc;strokeColor=#d6b656;" vertex="1" parent="1">
          <mxGeometry x="1290" y="360" width="120" height="60" as="geometry" />
        </mxCell>
        <mxCell id="WJDLdsBlLHQX-QpXwVI_-24" style="edgeStyle=orthogonalEdgeStyle;rounded=0;orthogonalLoop=1;jettySize=auto;html=1;exitX=0.5;exitY=1;exitDx=0;exitDy=0;" edge="1" parent="1" source="WJDLdsBlLHQX-QpXwVI_-17">
          <mxGeometry relative="1" as="geometry">
            <mxPoint x="1350.235294117647" y="570" as="targetPoint" />
          </mxGeometry>
        </mxCell>
        <mxCell id="WJDLdsBlLHQX-QpXwVI_-17" value="Fornecer Nome" style="rounded=1;whiteSpace=wrap;html=1;fillColor=#fff2cc;strokeColor=#d6b656;" vertex="1" parent="1">
          <mxGeometry x="1290" y="470" width="120" height="60" as="geometry" />
        </mxCell>
        <mxCell id="WJDLdsBlLHQX-QpXwVI_-25" style="edgeStyle=orthogonalEdgeStyle;rounded=0;orthogonalLoop=1;jettySize=auto;html=1;exitX=0.5;exitY=1;exitDx=0;exitDy=0;entryX=0.5;entryY=0;entryDx=0;entryDy=0;" edge="1" parent="1" source="WJDLdsBlLHQX-QpXwVI_-18" target="WJDLdsBlLHQX-QpXwVI_-19">
          <mxGeometry relative="1" as="geometry">
            <mxPoint x="1350.235294117647" y="669.9999999999998" as="targetPoint" />
          </mxGeometry>
        </mxCell>
        <mxCell id="WJDLdsBlLHQX-QpXwVI_-18" value="Fornecer endereço" style="rounded=1;whiteSpace=wrap;html=1;fillColor=#fff2cc;strokeColor=#d6b656;" vertex="1" parent="1">
          <mxGeometry x="1290" y="575" width="120" height="60" as="geometry" />
        </mxCell>
        <mxCell id="WJDLdsBlLHQX-QpXwVI_-26" style="edgeStyle=orthogonalEdgeStyle;rounded=0;orthogonalLoop=1;jettySize=auto;html=1;exitX=0.5;exitY=1;exitDx=0;exitDy=0;entryX=0.5;entryY=0;entryDx=0;entryDy=0;" edge="1" parent="1" source="WJDLdsBlLHQX-QpXwVI_-19" target="WJDLdsBlLHQX-QpXwVI_-20">
          <mxGeometry relative="1" as="geometry" />
        </mxCell>
        <mxCell id="WJDLdsBlLHQX-QpXwVI_-19" value="Fornecer CEP" style="rounded=1;whiteSpace=wrap;html=1;fillColor=#fff2cc;strokeColor=#d6b656;" vertex="1" parent="1">
          <mxGeometry x="1290" y="680" width="120" height="60" as="geometry" />
        </mxCell>
        <mxCell id="WJDLdsBlLHQX-QpXwVI_-27" style="edgeStyle=orthogonalEdgeStyle;rounded=0;orthogonalLoop=1;jettySize=auto;html=1;exitX=0.5;exitY=1;exitDx=0;exitDy=0;entryX=0.5;entryY=0;entryDx=0;entryDy=0;" edge="1" parent="1" source="WJDLdsBlLHQX-QpXwVI_-20" target="WJDLdsBlLHQX-QpXwVI_-21">
          <mxGeometry relative="1" as="geometry" />
        </mxCell>
        <mxCell id="WJDLdsBlLHQX-QpXwVI_-20" value="Fornecer CPF" style="rounded=1;whiteSpace=wrap;html=1;fillColor=#fff2cc;strokeColor=#d6b656;" vertex="1" parent="1">
          <mxGeometry x="1290" y="785" width="120" height="60" as="geometry" />
        </mxCell>
        <mxCell id="WJDLdsBlLHQX-QpXwVI_-29" style="edgeStyle=orthogonalEdgeStyle;rounded=0;orthogonalLoop=1;jettySize=auto;html=1;entryX=0.5;entryY=0;entryDx=0;entryDy=0;" edge="1" parent="1" source="WJDLdsBlLHQX-QpXwVI_-21" target="WJDLdsBlLHQX-QpXwVI_-28">
          <mxGeometry relative="1" as="geometry" />
        </mxCell>
        <mxCell id="WJDLdsBlLHQX-QpXwVI_-21" value="Fornecer senha" style="rounded=1;whiteSpace=wrap;html=1;fillColor=#fff2cc;strokeColor=#d6b656;" vertex="1" parent="1">
          <mxGeometry x="1290" y="890" width="120" height="60" as="geometry" />
        </mxCell>
        <mxCell id="WJDLdsBlLHQX-QpXwVI_-35" style="edgeStyle=orthogonalEdgeStyle;rounded=0;orthogonalLoop=1;jettySize=auto;html=1;entryX=0.5;entryY=0;entryDx=0;entryDy=0;" edge="1" parent="1" source="WJDLdsBlLHQX-QpXwVI_-22" target="WJDLdsBlLHQX-QpXwVI_-34">
          <mxGeometry relative="1" as="geometry" />
        </mxCell>
        <mxCell id="WJDLdsBlLHQX-QpXwVI_-22" value="Fornecer código de agência" style="rounded=1;whiteSpace=wrap;html=1;strokeColor=#d6b656;fillColor=#fff2cc;" vertex="1" parent="1">
          <mxGeometry x="1290" y="1260" width="120" height="60" as="geometry" />
        </mxCell>
        <mxCell id="WJDLdsBlLHQX-QpXwVI_-32" style="edgeStyle=orthogonalEdgeStyle;rounded=0;orthogonalLoop=1;jettySize=auto;html=1;exitX=0.5;exitY=1;exitDx=0;exitDy=0;entryX=0.5;entryY=0;entryDx=0;entryDy=0;" edge="1" parent="1" source="WJDLdsBlLHQX-QpXwVI_-28" target="WJDLdsBlLHQX-QpXwVI_-30">
          <mxGeometry relative="1" as="geometry" />
        </mxCell>
        <mxCell id="WJDLdsBlLHQX-QpXwVI_-28" value="Cadastrar Conta Corrente" style="rounded=1;whiteSpace=wrap;html=1;strokeColor=#d6b656;fillColor=#fff2cc;" vertex="1" parent="1">
          <mxGeometry x="1290" y="1010" width="120" height="60" as="geometry" />
        </mxCell>
        <mxCell id="WJDLdsBlLHQX-QpXwVI_-33" style="edgeStyle=orthogonalEdgeStyle;rounded=0;orthogonalLoop=1;jettySize=auto;html=1;exitX=0.5;exitY=1;exitDx=0;exitDy=0;entryX=0.5;entryY=0;entryDx=0;entryDy=0;" edge="1" parent="1" source="WJDLdsBlLHQX-QpXwVI_-30" target="WJDLdsBlLHQX-QpXwVI_-22">
          <mxGeometry relative="1" as="geometry" />
        </mxCell>
        <mxCell id="WJDLdsBlLHQX-QpXwVI_-30" value="Fornecer código de banco" style="rounded=1;whiteSpace=wrap;html=1;strokeColor=#d6b656;fillColor=#fff2cc;" vertex="1" parent="1">
          <mxGeometry x="1290" y="1130" width="120" height="60" as="geometry" />
        </mxCell>
        <mxCell id="WJDLdsBlLHQX-QpXwVI_-36" style="edgeStyle=orthogonalEdgeStyle;rounded=0;orthogonalLoop=1;jettySize=auto;html=1;entryX=1;entryY=0.5;entryDx=0;entryDy=0;" edge="1" parent="1" source="WJDLdsBlLHQX-QpXwVI_-34" target="WJDLdsBlLHQX-QpXwVI_-13">
          <mxGeometry relative="1" as="geometry">
            <Array as="points">
              <mxPoint x="1270" y="1420" />
              <mxPoint x="1270" y="410" />
            </Array>
          </mxGeometry>
        </mxCell>
        <mxCell id="WJDLdsBlLHQX-QpXwVI_-34" value="Fornecer Número da Conta" style="rounded=1;whiteSpace=wrap;html=1;strokeColor=#d6b656;fillColor=#fff2cc;" vertex="1" parent="1">
          <mxGeometry x="1290" y="1390" width="120" height="60" as="geometry" />
        </mxCell>
        <mxCell id="WJDLdsBlLHQX-QpXwVI_-40" style="edgeStyle=orthogonalEdgeStyle;rounded=0;orthogonalLoop=1;jettySize=auto;html=1;exitX=0.5;exitY=1;exitDx=0;exitDy=0;" edge="1" parent="1" source="WJDLdsBlLHQX-QpXwVI_-37" target="WJDLdsBlLHQX-QpXwVI_-39">
          <mxGeometry relative="1" as="geometry">
            <mxPoint x="735.3333333333335" y="590" as="targetPoint" />
          </mxGeometry>
        </mxCell>
        <mxCell id="WJDLdsBlLHQX-QpXwVI_-37" value="Informar CPF" style="rounded=1;whiteSpace=wrap;html=1;strokeColor=#d6b656;fillColor=#fff2cc;" vertex="1" parent="1">
          <mxGeometry x="675" y="490" width="120" height="60" as="geometry" />
        </mxCell>
        <mxCell id="WJDLdsBlLHQX-QpXwVI_-48" style="edgeStyle=orthogonalEdgeStyle;rounded=0;orthogonalLoop=1;jettySize=auto;html=1;exitX=0.5;exitY=1;exitDx=0;exitDy=0;entryX=0.5;entryY=0;entryDx=0;entryDy=0;" edge="1" parent="1" source="WJDLdsBlLHQX-QpXwVI_-39" target="WJDLdsBlLHQX-QpXwVI_-44">
          <mxGeometry relative="1" as="geometry" />
        </mxCell>
        <mxCell id="WJDLdsBlLHQX-QpXwVI_-49" style="edgeStyle=orthogonalEdgeStyle;rounded=0;orthogonalLoop=1;jettySize=auto;html=1;exitX=0.5;exitY=1;exitDx=0;exitDy=0;entryX=0.5;entryY=0;entryDx=0;entryDy=0;" edge="1" parent="1" source="WJDLdsBlLHQX-QpXwVI_-39" target="WJDLdsBlLHQX-QpXwVI_-41">
          <mxGeometry relative="1" as="geometry" />
        </mxCell>
        <mxCell id="WJDLdsBlLHQX-QpXwVI_-50" style="edgeStyle=orthogonalEdgeStyle;rounded=0;orthogonalLoop=1;jettySize=auto;html=1;exitX=0.5;exitY=1;exitDx=0;exitDy=0;entryX=0.5;entryY=0;entryDx=0;entryDy=0;" edge="1" parent="1" source="WJDLdsBlLHQX-QpXwVI_-39" target="WJDLdsBlLHQX-QpXwVI_-42">
          <mxGeometry relative="1" as="geometry" />
        </mxCell>
        <mxCell id="WJDLdsBlLHQX-QpXwVI_-51" style="edgeStyle=orthogonalEdgeStyle;rounded=0;orthogonalLoop=1;jettySize=auto;html=1;exitX=0.5;exitY=1;exitDx=0;exitDy=0;entryX=0.5;entryY=0;entryDx=0;entryDy=0;" edge="1" parent="1" source="WJDLdsBlLHQX-QpXwVI_-39" target="WJDLdsBlLHQX-QpXwVI_-43">
          <mxGeometry relative="1" as="geometry" />
        </mxCell>
        <mxCell id="WJDLdsBlLHQX-QpXwVI_-52" style="edgeStyle=orthogonalEdgeStyle;rounded=0;orthogonalLoop=1;jettySize=auto;html=1;exitX=0.5;exitY=1;exitDx=0;exitDy=0;entryX=0.628;entryY=0.006;entryDx=0;entryDy=0;entryPerimeter=0;" edge="1" parent="1" source="WJDLdsBlLHQX-QpXwVI_-39" target="WJDLdsBlLHQX-QpXwVI_-45">
          <mxGeometry relative="1" as="geometry" />
        </mxCell>
        <mxCell id="WJDLdsBlLHQX-QpXwVI_-53" style="edgeStyle=orthogonalEdgeStyle;rounded=0;orthogonalLoop=1;jettySize=auto;html=1;exitX=0.5;exitY=1;exitDx=0;exitDy=0;entryX=0.5;entryY=0;entryDx=0;entryDy=0;" edge="1" parent="1" source="WJDLdsBlLHQX-QpXwVI_-39" target="WJDLdsBlLHQX-QpXwVI_-46">
          <mxGeometry relative="1" as="geometry" />
        </mxCell>
        <mxCell id="WJDLdsBlLHQX-QpXwVI_-39" value="Informar Senha" style="rounded=1;whiteSpace=wrap;html=1;strokeColor=#d6b656;fillColor=#fff2cc;" vertex="1" parent="1">
          <mxGeometry x="675" y="595" width="120" height="60" as="geometry" />
        </mxCell>
        <mxCell id="WJDLdsBlLHQX-QpXwVI_-57" style="edgeStyle=orthogonalEdgeStyle;rounded=0;orthogonalLoop=1;jettySize=auto;html=1;exitX=0.5;exitY=1;exitDx=0;exitDy=0;entryX=0.5;entryY=0;entryDx=0;entryDy=0;" edge="1" parent="1" source="WJDLdsBlLHQX-QpXwVI_-41" target="WJDLdsBlLHQX-QpXwVI_-54">
          <mxGeometry relative="1" as="geometry" />
        </mxCell>
        <mxCell id="WJDLdsBlLHQX-QpXwVI_-41" value="Cadastrar Produto de Investimento" style="rounded=1;whiteSpace=wrap;html=1;strokeColor=#d6b656;fillColor=#fff2cc;" vertex="1" parent="1">
          <mxGeometry x="600" y="710" width="120" height="60" as="geometry" />
        </mxCell>
        <mxCell id="WJDLdsBlLHQX-QpXwVI_-58" style="edgeStyle=orthogonalEdgeStyle;rounded=0;orthogonalLoop=1;jettySize=auto;html=1;exitX=0.5;exitY=1;exitDx=0;exitDy=0;entryX=0.5;entryY=0;entryDx=0;entryDy=0;" edge="1" parent="1" source="WJDLdsBlLHQX-QpXwVI_-42" target="WJDLdsBlLHQX-QpXwVI_-55">
          <mxGeometry relative="1" as="geometry" />
        </mxCell>
        <mxCell id="WJDLdsBlLHQX-QpXwVI_-42" value="Descadastrar Produto de Investimento" style="rounded=1;whiteSpace=wrap;html=1;strokeColor=#d6b656;fillColor=#fff2cc;" vertex="1" parent="1">
          <mxGeometry x="760" y="710" width="120" height="60" as="geometry" />
        </mxCell>
        <mxCell id="WJDLdsBlLHQX-QpXwVI_-59" style="edgeStyle=orthogonalEdgeStyle;rounded=0;orthogonalLoop=1;jettySize=auto;html=1;exitX=0.5;exitY=1;exitDx=0;exitDy=0;entryX=0.5;entryY=0;entryDx=0;entryDy=0;" edge="1" parent="1" source="WJDLdsBlLHQX-QpXwVI_-43" target="WJDLdsBlLHQX-QpXwVI_-56">
          <mxGeometry relative="1" as="geometry" />
        </mxCell>
        <mxCell id="WJDLdsBlLHQX-QpXwVI_-43" value="Realizar aplicação em Produto de Investimento" style="rounded=1;whiteSpace=wrap;html=1;strokeColor=#d6b656;fillColor=#fff2cc;" vertex="1" parent="1">
          <mxGeometry x="920" y="710" width="120" height="60" as="geometry" />
        </mxCell>
        <mxCell id="WJDLdsBlLHQX-QpXwVI_-44" value="Apresentar dados da sua conta corrente" style="rounded=1;whiteSpace=wrap;html=1;strokeColor=#d6b656;fillColor=#fff2cc;" vertex="1" parent="1">
          <mxGeometry x="430" y="710" width="120" height="60" as="geometry" />
        </mxCell>
        <mxCell id="WJDLdsBlLHQX-QpXwVI_-45" value="Listar suas aplicações em produtos de investimento" style="rounded=1;whiteSpace=wrap;html=1;strokeColor=#d6b656;fillColor=#fff2cc;" vertex="1" parent="1">
          <mxGeometry x="1080" y="710" width="120" height="60" as="geometry" />
        </mxCell>
        <mxCell id="WJDLdsBlLHQX-QpXwVI_-46" value="Apresentar dados do Seu cadastro" style="rounded=1;whiteSpace=wrap;html=1;strokeColor=#d6b656;fillColor=#fff2cc;" vertex="1" parent="1">
          <mxGeometry x="240" y="710" width="120" height="60" as="geometry" />
        </mxCell>
        <mxCell id="WJDLdsBlLHQX-QpXwVI_-54" value="Informar dados do produto de Investimento" style="rounded=1;whiteSpace=wrap;html=1;strokeColor=#d6b656;fillColor=#fff2cc;" vertex="1" parent="1">
          <mxGeometry x="600" y="820" width="120" height="60" as="geometry" />
        </mxCell>
        <mxCell id="WJDLdsBlLHQX-QpXwVI_-55" value="Informar o código do produto de investimento" style="rounded=1;whiteSpace=wrap;html=1;strokeColor=#d6b656;fillColor=#fff2cc;" vertex="1" parent="1">
          <mxGeometry x="760" y="820" width="120" height="60" as="geometry" />
        </mxCell>
        <mxCell id="WJDLdsBlLHQX-QpXwVI_-61" style="edgeStyle=orthogonalEdgeStyle;rounded=0;orthogonalLoop=1;jettySize=auto;html=1;exitX=0.5;exitY=1;exitDx=0;exitDy=0;entryX=0.5;entryY=0;entryDx=0;entryDy=0;" edge="1" parent="1" source="WJDLdsBlLHQX-QpXwVI_-56" target="WJDLdsBlLHQX-QpXwVI_-60">
          <mxGeometry relative="1" as="geometry" />
        </mxCell>
        <mxCell id="WJDLdsBlLHQX-QpXwVI_-56" value="Informar código para a sua aplicação" style="rounded=1;whiteSpace=wrap;html=1;strokeColor=#d6b656;fillColor=#fff2cc;" vertex="1" parent="1">
          <mxGeometry x="920" y="820" width="120" height="60" as="geometry" />
        </mxCell>
        <mxCell id="WJDLdsBlLHQX-QpXwVI_-63" style="edgeStyle=orthogonalEdgeStyle;rounded=0;orthogonalLoop=1;jettySize=auto;html=1;exitX=0.5;exitY=1;exitDx=0;exitDy=0;" edge="1" parent="1" source="WJDLdsBlLHQX-QpXwVI_-60" target="WJDLdsBlLHQX-QpXwVI_-62">
          <mxGeometry relative="1" as="geometry" />
        </mxCell>
        <mxCell id="WJDLdsBlLHQX-QpXwVI_-60" value="Informar código do produto de investimento" style="rounded=1;whiteSpace=wrap;html=1;strokeColor=#d6b656;fillColor=#fff2cc;" vertex="1" parent="1">
          <mxGeometry x="920" y="930" width="120" height="60" as="geometry" />
        </mxCell>
        <mxCell id="WJDLdsBlLHQX-QpXwVI_-65" style="edgeStyle=orthogonalEdgeStyle;rounded=0;orthogonalLoop=1;jettySize=auto;html=1;exitX=0.5;exitY=1;exitDx=0;exitDy=0;entryX=0.5;entryY=0;entryDx=0;entryDy=0;" edge="1" parent="1" source="WJDLdsBlLHQX-QpXwVI_-62" target="WJDLdsBlLHQX-QpXwVI_-64">
          <mxGeometry relative="1" as="geometry" />
        </mxCell>
        <mxCell id="WJDLdsBlLHQX-QpXwVI_-62" value="Informar valor da aplicação" style="rounded=1;whiteSpace=wrap;html=1;strokeColor=#d6b656;fillColor=#fff2cc;" vertex="1" parent="1">
          <mxGeometry x="920" y="1040" width="120" height="60" as="geometry" />
        </mxCell>
        <mxCell id="WJDLdsBlLHQX-QpXwVI_-64" value="Informar data da aplicação" style="rounded=1;whiteSpace=wrap;html=1;strokeColor=#d6b656;fillColor=#fff2cc;" vertex="1" parent="1">
          <mxGeometry x="920" y="1150" width="120" height="60" as="geometry" />
        </mxCell>
      </root>
    </mxGraphModel>
  </diagram>
</mxfile>
